<?xml version="1.0" encoding="UTF-8"?>
<svg width="239px" height="70px" viewBox="0 0 239 70" version="1.1" xmlns="http://www.w3.org/2000/svg" xmlns:xlink="http://www.w3.org/1999/xlink">
    <!-- Generator: Sketch 39.1 (31720) - http://www.bohemiancoding.com/sketch -->
    <title>Artboard</title>
    <desc>Created with Sketch.</desc>
    <defs></defs>
    <g id="Page-1" stroke="none" stroke-width="1" fill="none" fill-rule="evenodd">
        <g id="Artboard">
            <g id="Group" transform="translate(0.000000, 20.000000)">
                <text id="My-Resure" font-family="LucidaGrande, Lucida Grande" font-size="24" font-weight="normal" fill="#23374F">
                    <tspan x="40" y="23">My</tspan>
                    <tspan x="73.2109375" y="23" font-family="AlBayan, Al Bayan"> </tspan>
                    <tspan x="78.0109375" y="23">Resure</tspan>
                </text>
                <path d="M23.1375899,21.8620013 L23.1396899,21.8495013 L23.1581899,21.8177013 L23.1659899,21.8413013 L23.1375899,21.8620013 L23.1375899,21.8620013 Z M22.2423323,21.4087019 L22.2442323,21.3976019 L22.2606323,21.3692019 L22.2674323,21.3905019 L22.2423323,21.4087019 L22.2423323,21.4087019 Z M0.41328294,12.3943294 L14.0792374,20.1897448 C14.3412852,20.3390995 14.6493777,20.3246864 14.8929496,20.1838441 C14.8989954,20.1805552 14.9055248,20.1790075 14.9115222,20.1755252 L28.6282611,12.368647 C28.8959195,12.2161485 29.0409212,11.9351895 29.0375839,11.6476043 C29.0406794,11.3600675 28.895726,11.0793987 28.6282611,10.9269969 L14.9115222,3.12016713 C14.9055732,3.11673314 14.8990438,3.11518542 14.892998,3.11189652 C14.6494744,2.97110264 14.3413336,2.95664116 14.0791407,3.10594748 L0.413234574,10.9013629 C0.137740942,11.0583594 -0.00822811998,11.35141 0.00444381321,11.6477978 C-0.00822811998,11.9441856 0.137692576,12.2372845 0.413234574,12.394281 L0.41328294,12.3943294 L0.41328294,12.3943294 Z M14.4832883,4.75895764 L26.5871126,11.6477978 L14.4832883,18.5365895 L2.40669411,11.6477978 L14.4832883,4.75895764 L14.4832883,4.75895764 Z M0.413089476,18.3763041 L14.0790439,26.1717195 C14.3411401,26.3210742 14.6491842,26.3066611 14.8927562,26.1657705 C14.8988503,26.1624816 14.9053314,26.1609338 14.9113288,26.1575966 L28.6280677,18.3507184 C29.020559,18.1270249 29.1572902,17.6274509 28.9337902,17.2349112 C28.7102418,16.8423714 28.2105226,16.7056887 27.8179829,16.9291887 L14.4832883,24.5186126 L1.22327098,16.954726 C0.830779609,16.7310809 0.331108839,16.8679571 0.107415362,17.2604485 C-0.116229749,17.653085 0.0206464759,18.1525139 0.413137842,18.3763041 L0.413089476,18.3763041 L0.413089476,18.3763041 Z M27.8180313,22.6515338 L14.4832883,30.2410061 L1.22327098,22.6770712 C0.830634511,22.4533777 0.331108839,22.5902056 0.107415362,22.9827936 C-0.116229749,23.3754301 0.0206464759,23.8748591 0.413137842,24.0986009 L14.0790923,31.8940163 C14.3411885,32.043371 14.6492326,32.0289095 14.8928045,31.8880672 C14.8988987,31.8848267 14.9053797,31.8832306 14.9113771,31.8797966 L28.628116,24.0729185 C29.0206074,23.849225 29.1573385,23.3496993 28.9338385,22.9571596 C28.7102901,22.5646199 28.2106194,22.4278887 27.8180313,22.6514855 L27.8180313,22.6515338 L27.8180313,22.6515338 Z" id="层级管理" fill="#04B2FD"></path>
            </g>
        </g>
    </g>
</svg>